<?xml version="1.0" encoding="UTF-8"?>
<svg width="400" height="300" xmlns="http://www.w3.org/2000/svg">
  <rect width="100%" height="100%" fill="#ffeeee"/>
  <text x="50%" y="50%" font-family="Arial" font-size="48" text-anchor="middle" fill="#ff6699">
    *KISS*
  </text>
  <!-- Hearts -->
  <path d="M 130,80 Q 100,60 100,90 Q 100,120 130,120 Q 160,120 160,90 Q 160,60 130,80 Z" fill="#ff6699" stroke="#ff3366" stroke-width="2"/>
  <path d="M 300,80 Q 270,60 270,90 Q 270,120 300,120 Q 330,120 330,90 Q 330,60 300,80 Z" fill="#ff6699" stroke="#ff3366" stroke-width="2"/>
  
  <!-- Lips -->
  <path d="M 180,180 Q 200,160 220,180 Q 240,160 260,180 Q 240,200 220,180 Q 200,200 180,180 Z" fill="#ff3366" stroke="#ff0066" stroke-width="2"/>
  
  <!-- Sparkles -->
  <circle cx="150" cy="100" r="5" fill="#ffff99"/>
  <circle cx="320" cy="100" r="5" fill="#ffff99"/>
  <circle cx="220" cy="120" r="5" fill="#ffff99"/>
  <circle cx="220" cy="240" r="5" fill="#ffff99"/>
  <circle cx="180" cy="210" r="5" fill="#ffff99"/>
  <circle cx="260" cy="210" r="5" fill="#ffff99"/>
</svg>