<?xml version="1.0" encoding="UTF-8"?>
<svg width="400" height="300" xmlns="http://www.w3.org/2000/svg">
  <rect width="100%" height="100%" fill="#ffeeee"/>
  <text x="50%" y="50%" font-family="Arial" font-size="48" text-anchor="middle" fill="#ff6666">
    *SLAP*
  </text>
  <!-- Hand -->
  <path d="M 50,150 L 180,80 L 200,110 L 70,180 Z" fill="#ffcc99" stroke="#000" stroke-width="2"/>
  <!-- Motion lines -->
  <path d="M 210,90 L 250,80" stroke="#666" stroke-width="3" stroke-dasharray="5,5"/>
  <path d="M 210,110 L 250,120" stroke="#666" stroke-width="3" stroke-dasharray="5,5"/>
  <path d="M 210,130 L 250,150" stroke="#666" stroke-width="3" stroke-dasharray="5,5"/>
  <!-- Face -->
  <circle cx="300" cy="120" r="40" fill="#ffcc99" stroke="#000" stroke-width="2"/>
  <circle cx="285" cy="110" r="5" fill="#000"/>
  <circle cx="315" cy="110" r="5" fill="#000"/>
  <path d="M 280,140 Q 300,130 320,140" fill="none" stroke="#000" stroke-width="2"/>
  <!-- Stars -->
  <path d="M 260,80 L 265,95 L 280,95 L 270,105 L 275,120 L 260,110 L 245,120 L 250,105 L 240,95 L 255,95 Z" fill="#ffff00" stroke="#000"/>
</svg>