<?xml version="1.0" encoding="UTF-8"?>
<svg width="400" height="300" xmlns="http://www.w3.org/2000/svg">
  <rect width="100%" height="100%" fill="#e6ffee"/>
  <text x="50%" y="50%" font-family="Arial" font-size="48" text-anchor="middle" fill="#33cc66">
    *YEET*
  </text>
  <!-- Person throwing -->
  <circle cx="100" cy="180" r="30" fill="#99ccff" stroke="#000" stroke-width="2"/>
  <line x1="100" y1="210" x2="100" y2="250" stroke="#000" stroke-width="4"/>
  <line x1="100" y1="220" x2="60" y2="240" stroke="#000" stroke-width="4"/>
  <line x1="100" y1="220" x2="140" y2="190" stroke="#000" stroke-width="4"/>
  <line x1="100" y1="250" x2="80" y2="280" stroke="#000" stroke-width="4"/>
  <line x1="100" y1="250" x2="120" y2="280" stroke="#000" stroke-width="4"/>
  
  <!-- Throwing arc -->
  <path d="M 140,190 Q 200,100 330,130" fill="none" stroke="#ff6600" stroke-width="3" stroke-dasharray="8,4"/>
  
  <!-- Object being thrown -->
  <circle cx="330" cy="130" r="20" fill="#ff9933" stroke="#000" stroke-width="2"/>
  
  <!-- Motion lines -->
  <line x1="290" y1="110" x2="310" y2="120" stroke="#999" stroke-width="2"/>
  <line x1="280" y1="120" x2="305" y2="135" stroke="#999" stroke-width="2"/>
  <line x1="290" y1="140" x2="310" y2="145" stroke="#999" stroke-width="2"/>
  
  <!-- Speed marks -->
  <path d="M 330,110 L 345,100 L 350,115" fill="none" stroke="#000" stroke-width="2"/>
  <path d="M 350,130 L 365,125 L 360,145" fill="none" stroke="#000" stroke-width="2"/>
</svg>